<svg id="colorlogo" width="217" height="36" viewBox="0 0 1040 174" fill="none" xmlns="http://www.w3.org/2000/svg">
<path d="M65.8 142.85H40.62L11.64 56.64C10.49 52.83 8.58 49.78 3.63 49.78H0V38.72H32.24V49.21L52.64 120.73C54.17 126.65 54.55 131.41 54.55 132.37C54.93 130.65 58.17 120.16 80.11 59.51C82.78 52.26 81.82 49.78 77.25 49.78H74.2V38.72H102.05V49.21L65.8 142.85Z" fill="#0231B5"></path>
<path d="M215.38 132.36C215.38 132.36 201.08 146.66 174.95 146.66C131.85 146.66 124.22 114.05 124.22 90.78C124.22 71.32 132.23 34.89 173.05 34.89C207 34.89 216.53 57.59 216.53 87.53V87.72C216.53 91.73 215.96 93.25 213.29 93.25H146.73C146.73 116.14 155.12 131.59 175.72 131.59C186.4 131.59 197.27 127.78 206.05 120.15L215.38 132.36ZM173.04 49.02C152.82 49.02 148.25 63.7 147.1 80.68H194.97C194.59 59.12 189.44 49.02 173.04 49.02Z" fill="#0231B5"></path>
<path d="M314.22 59.12C304.68 59.12 306.78 51.87 297.44 51.87C288.66 51.87 281.23 60.45 274.74 72.66C275.13 76.09 275.51 80.09 275.51 83.34V126.26C275.51 129.5 276.08 131.41 279.9 131.41H288.48V142.85H242.7V131.41H251.28C255.09 131.41 255.67 129.5 255.67 126.26V101.27C255.67 77.05 254.91 66.75 251.28 57.97C248.04 50.73 244.61 49.96 241.74 50.73L239.07 51.49L236.21 44.82L261.76 34.71C265.77 42.34 269.01 50.16 271.3 57.6C279.5 43.68 291.33 34.9 306.4 34.9C316.32 34.9 324.14 40.24 324.14 48.63C324.14 56.64 318.8 59.12 314.22 59.12Z" fill="#0231B5"></path>
<path d="M390.95 146.48C361.77 146.48 355.47 130.46 355.47 109.48V54.36L337.35 54.93V40.43C360.04 40.43 362.72 23.84 362.72 11.44V0H376.45V39.48L412.88 38.53V54.93L376.45 54.36V109.86C376.45 121.49 377.78 131.41 391.71 131.41C401.06 131.41 408.31 125.31 412.88 120.73L421.46 132.17C413.45 141.13 402.01 146.48 390.95 146.48Z" fill="#0231B5"></path>
<path d="M532.9 132.36C532.9 132.36 518.6 146.66 492.46 146.66C449.36 146.66 441.73 114.05 441.73 90.78C441.73 71.32 449.74 34.89 490.56 34.89C524.51 34.89 534.04 57.59 534.04 87.53V87.72C534.04 91.73 533.47 93.25 530.8 93.25H464.24C464.24 116.14 472.64 131.59 493.23 131.59C503.91 131.59 514.77 127.78 523.55 120.15L532.9 132.36ZM490.56 49.02C470.34 49.02 465.77 63.7 464.62 80.68H512.49C512.11 59.12 506.96 49.02 490.56 49.02Z" fill="#0231B5"></path>
<path d="M651.58 132.36C651.58 132.36 637.28 146.66 611.14 146.66C568.04 146.66 560.41 114.05 560.41 90.78C560.41 71.32 568.42 34.89 609.23 34.89C643.18 34.89 652.71 57.59 652.71 87.53V87.72C652.71 91.73 652.14 93.25 649.47 93.25H582.91C582.91 116.14 591.31 131.59 611.9 131.59C622.58 131.59 633.45 127.78 642.22 120.15L651.58 132.36ZM609.24 49.02C589.02 49.02 584.45 63.7 583.3 80.68H631.17C630.79 59.12 625.64 49.02 609.24 49.02Z" fill="#0231B5"></path>
<path d="M779.99 32.23C774.46 32.23 774.84 28.61 769.12 28.99C762.83 29.37 757.68 36.24 758.63 45.77C758.63 47.1 758.82 48.63 759.01 49.58C764.92 56.64 768.54 65.6 768.54 76.66C768.54 101.84 749.47 118.24 725.25 118.24C720.67 118.24 716.09 117.48 711.9 116.33C702.74 119.38 695.68 124.15 695.68 134.06C695.68 146.65 707.32 147.6 716.67 147.41C730.59 147.41 736.69 146.65 751.76 146.65C766.64 146.65 773.69 151.23 773.69 160C773.69 166.29 769.31 172.4 764.54 173.35C762.82 167.82 758.82 165.72 748.32 165.72C738.02 165.72 731.35 166.29 710.18 166.29C689.4 166.29 677.57 154.65 677.57 137.3C677.57 117.09 695.31 111.17 698.74 110.41C688.44 103.35 681.96 91.33 681.96 76.65C681.96 51.28 700.65 34.88 725.26 34.88C733.46 34.88 741.09 36.98 747.57 40.22C747.57 23.06 760.35 11.99 774.65 11.81C782.85 11.62 789.34 15.24 789.34 22.68C789.33 28.23 785.9 32.23 779.99 32.23ZM725.25 48.26C711.71 48.26 703.7 58.18 703.7 76.67C703.7 95.17 711.71 104.9 725.25 104.9C738.6 104.9 746.61 95.17 746.61 76.67C746.61 58.17 738.6 48.26 725.25 48.26Z" fill="#0231B5"></path>
<path d="M850.8 146.66C808.65 146.66 801.59 111 801.59 90.78C801.59 70.37 808.65 34.89 850.8 34.89C892.94 34.89 899.81 70.37 899.81 90.78C899.81 111 892.95 146.66 850.8 146.66ZM850.8 49.97C832.11 49.97 824.09 64.85 824.09 90.79C824.09 116.72 832.11 131.41 850.8 131.41C869.68 131.41 877.69 116.72 877.69 90.79C877.69 64.85 869.68 49.97 850.8 49.97Z" fill="#0231B5"></path>
<path d="M1039.03 107.91H958.91V146.36H1039.03V107.91Z" fill="#FF5A55"></path>
</svg>